<svg width="30" height="30" viewBox="0 0 30 30" fill="none" xmlns="http://www.w3.org/2000/svg">
<path d="M22 14C20.4178 14 18.871 14.4692 17.5554 15.3482C16.2398 16.2273 15.2145 17.4767 14.609 18.9385C14.0035 20.4003 13.845 22.0089 14.1537 23.5607C14.4624 25.1126 15.2243 26.538 16.3431 27.6568C17.462 28.7757 18.8874 29.5376 20.4393 29.8463C21.9911 30.155 23.5997 29.9965 25.0615 29.391C26.5233 28.7855 27.7727 27.7601 28.6518 26.4446C29.5308 25.129 30 23.5822 30 22C30 19.8783 29.1571 17.8434 27.6569 16.3431C26.1566 14.8429 24.1217 14 22 14ZM26.25 20.7L21.55 26L18.3 22.75C18.1854 22.664 18.0906 22.5544 18.022 22.4287C17.9534 22.3029 17.9127 22.1638 17.9025 22.0209C17.8924 21.878 17.913 21.7345 17.9631 21.6003C18.0132 21.4661 18.0916 21.3442 18.1929 21.2429C18.2942 21.1416 18.4161 21.0632 18.5503 21.0131C18.6846 20.963 18.828 20.9424 18.9709 20.9525C19.1138 20.9627 19.2529 21.0034 19.3787 21.072C19.5044 21.1406 19.614 21.2354 19.7 21.35L21.45 23.1L24.75 19.4C24.8386 19.3015 24.9458 19.2214 25.0654 19.1644C25.185 19.1073 25.3146 19.0743 25.447 19.0674C25.5793 19.0604 25.7117 19.0796 25.8366 19.1238C25.9615 19.168 26.0765 19.2364 26.175 19.325C26.2735 19.4136 26.3536 19.5208 26.4106 19.6404C26.4677 19.76 26.5007 19.8896 26.5076 20.022C26.5146 20.1543 26.4954 20.2867 26.4512 20.4116C26.407 20.5365 26.3386 20.6515 26.25 20.75V20.7Z" fill="white"/>
<path d="M19.2 0H13V6H23.2L19.2 0ZM11 0H4.8L0.8 6H11V0ZM22 12C22.6717 11.9997 23.3417 12.0667 24 12.2V8H0V24H12.2C11.9034 22.5469 11.9337 21.0461 12.2887 19.6061C12.6437 18.1662 13.3146 16.8233 14.2526 15.6746C15.1907 14.526 16.3725 13.6004 17.7125 12.9648C19.0524 12.3293 20.517 11.9997 22 12Z" fill="white"/>
</svg>
