<svg width="31" height="30" viewBox="0 0 31 30" fill="none" xmlns="http://www.w3.org/2000/svg">
<path d="M2.85104e-07 12.7869V29.5082C2.85104e-07 29.6386 0.0518151 29.7637 0.144046 29.8559C0.236277 29.9482 0.361369 30 0.491804 30H5.40984V6.29211L0.118033 12.4667C0.0417399 12.5559 -0.000126054 12.6695 2.85104e-07 12.7869ZM7.37705 30H12.2956V13.1936L7.37705 8.27556V30Z" fill="white"/>
<path d="M14.2624 13.7705V30H30.0001C30.1305 30 30.2556 29.9482 30.3479 29.856C30.4401 29.7637 30.4919 29.6386 30.4919 29.5082V13.7705H14.2624ZM26.0657 20.6558H17.2132C16.9523 20.6558 16.7022 20.5521 16.5177 20.3677C16.3332 20.1832 16.2296 19.933 16.2296 19.6721C16.2296 19.4113 16.3332 19.1611 16.5177 18.9766C16.7022 18.7922 16.9523 18.6885 17.2132 18.6885H26.0657C26.3265 18.6885 26.5767 18.7922 26.7612 18.9766C26.9456 19.1611 27.0493 19.4113 27.0493 19.6721C27.0493 19.933 26.9456 20.1832 26.7612 20.3677C26.5767 20.5521 26.3265 20.6558 26.0657 20.6558Z" fill="white"/>
<path d="M24.4714 5.58148C24.4253 5.52765 24.368 5.48444 24.3036 5.45481C24.2391 5.42518 24.1691 5.40984 24.0981 5.40984H24.0126V3.93443C24.0126 2.89095 23.5981 1.89021 22.8602 1.15237C22.1224 0.414519 21.1216 0 20.0781 0H11.2257C10.1822 0 9.18147 0.414519 8.44363 1.15237C7.70578 1.89021 7.29126 2.89095 7.29126 3.93443V5.40984L13.6847 11.8033H29.8031L24.4714 5.58148Z" fill="white"/>
</svg>
