<svg width="14" height="14" viewBox="0 0 14 14" fill="none" xmlns="http://www.w3.org/2000/svg">
<path d="M1.65892 3.31783C2.57511 3.31783 3.31783 2.57511 3.31783 1.65892C3.31783 0.742722 2.57511 0 1.65892 0C0.742722 0 0 0.742722 0 1.65892C0 2.57511 0.742722 3.31783 1.65892 3.31783Z" fill="#061210"/>
<path d="M4.88433 4.57462V13.7783H7.74195V9.22687C7.74195 8.0259 7.96789 6.86284 9.45697 6.86284C10.9256 6.86284 10.9438 8.23592 10.9438 9.30269V13.779H13.8029V8.73177C13.8029 6.2525 13.2691 4.34717 10.3713 4.34717C8.98007 4.34717 8.0475 5.11066 7.66613 5.83322H7.62746V4.57462H4.88433V4.57462ZM0.227539 4.57462H3.0897V13.7783H0.227539V4.57462Z" fill="#061210"/>
</svg>
