<svg width="177" height="52" viewBox="0 0 177 52" fill="none" xmlns="http://www.w3.org/2000/svg">
<rect width="176.534" height="51.9912" rx="10" fill="#161415"/>
<path d="M88.9905 27.9871C86.3155 27.9871 84.1353 30.0217 84.1353 32.8241C84.1353 35.6093 86.3155 37.661 88.9905 37.661C91.6665 37.661 93.8468 35.6093 93.8468 32.8241C93.8456 30.0217 91.6654 27.9871 88.9905 27.9871ZM88.9905 35.7572C87.5245 35.7572 86.2609 34.5482 86.2609 32.8252C86.2609 31.084 87.5256 29.8932 88.9905 29.8932C90.4565 29.8932 91.72 31.084 91.72 32.8252C91.72 34.5471 90.4565 35.7572 88.9905 35.7572ZM78.3976 27.9871C75.7226 27.9871 73.5424 30.0217 73.5424 32.8241C73.5424 35.6093 75.7226 37.661 78.3976 37.661C81.0737 37.661 83.2539 35.6093 83.2539 32.8241C83.2539 30.0217 81.0737 27.9871 78.3976 27.9871ZM78.3976 35.7572C76.9316 35.7572 75.668 34.5482 75.668 32.8252C75.668 31.084 76.9327 29.8932 78.3976 29.8932C79.8636 29.8932 81.1271 31.084 81.1271 32.8252C81.1283 34.5471 79.8636 35.7572 78.3976 35.7572ZM65.7985 29.4724V31.5241H70.7094C70.5627 32.6785 70.1783 33.5212 69.5914 34.1069C68.8772 34.8212 67.7592 35.6093 65.7985 35.6093C62.7755 35.6093 60.4122 33.1721 60.4122 30.1491C60.4122 27.1262 62.7755 24.6889 65.7985 24.6889C67.4294 24.6889 68.6202 25.3303 69.4993 26.1549L70.9471 24.7071C69.7188 23.5345 68.089 22.6372 65.7985 22.6372C61.6576 22.6372 58.1763 26.0082 58.1763 30.1491C58.1763 34.2901 61.6576 37.661 65.7985 37.661C68.0333 37.661 69.7199 36.9275 71.0381 35.5536C72.3937 34.1979 72.8157 32.2918 72.8157 30.753C72.8157 30.2776 72.7793 29.8375 72.7054 29.4713H65.7985V29.4724ZM117.328 31.0658C116.925 29.9853 115.697 27.9871 113.187 27.9871C110.695 27.9871 108.624 29.9478 108.624 32.8241C108.624 35.5354 110.677 37.661 113.424 37.661C115.641 37.661 116.924 36.3054 117.456 35.5172L115.807 34.4174C115.258 35.2238 114.506 35.7549 113.424 35.7549C112.344 35.7549 111.574 35.2602 111.079 34.2889L117.547 31.614L117.328 31.0658ZM110.731 32.6785C110.677 30.8088 112.179 29.8568 113.261 29.8568C114.103 29.8568 114.818 30.2788 115.056 30.8827L110.731 32.6785ZM105.473 37.3687H107.598V23.1513H105.473V37.3687ZM101.991 29.0687H101.918C101.442 28.5 100.525 27.9871 99.3718 27.9871C96.9528 27.9871 94.7361 30.1127 94.7361 32.8434C94.7361 35.5547 96.9528 37.6622 99.3718 37.6622C100.526 37.6622 101.442 37.1492 101.918 36.5635H101.991V37.2596C101.991 39.11 101.002 40.0994 99.4082 40.0994C98.1071 40.0994 97.3008 39.1657 96.9709 38.3775L95.1205 39.1475C95.6517 40.4292 97.0619 42.0055 99.4082 42.0055C101.9 42.0055 104.007 40.5396 104.007 36.9661V28.2817H101.992V29.0687H101.991ZM99.5549 35.7572C98.0889 35.7572 96.8618 34.5289 96.8618 32.8434C96.8618 31.1386 98.0889 29.8932 99.5549 29.8932C101.002 29.8932 102.138 31.1386 102.138 32.8434C102.138 34.5289 101.002 35.7572 99.5549 35.7572ZM127.284 23.1513H122.199V37.3687H124.32V31.9825H127.282C129.634 31.9825 131.948 30.2799 131.948 27.5674C131.948 24.855 129.636 23.1513 127.284 23.1513ZM127.338 30.0035H124.32V25.1302H127.338C128.925 25.1302 129.825 26.4438 129.825 27.5674C129.825 28.6683 128.925 30.0035 127.338 30.0035ZM140.454 27.9621C138.917 27.9621 137.326 28.6388 136.668 30.1389L138.551 30.9248C138.953 30.1389 139.704 29.8819 140.49 29.8819C141.587 29.8819 142.703 30.5404 142.721 31.7106V31.8574C142.337 31.6379 141.514 31.3092 140.508 31.3092C138.478 31.3092 136.41 32.4249 136.41 34.5096C136.41 36.4123 138.075 37.6371 139.941 37.6371C141.367 37.6371 142.154 36.9968 142.647 36.2462H142.72V37.3437H144.77V31.8926C144.771 29.3701 142.885 27.9621 140.454 27.9621ZM140.197 35.7538C139.503 35.7538 138.533 35.4058 138.533 34.5459C138.533 33.4484 139.741 33.0276 140.783 33.0276C141.715 33.0276 142.155 33.2289 142.721 33.503C142.556 34.8212 141.423 35.7538 140.197 35.7538ZM152.233 28.2726L149.8 34.4368H149.727L147.202 28.2726H144.916L148.702 36.8877L146.544 41.6803H148.757L154.593 28.2726H152.233ZM133.119 37.3687H135.24V23.1513H133.119V37.3687Z" fill="white"/>
<path fill-rule="evenodd" clip-rule="evenodd" d="M92.7126 10.9858C91.6965 10.9858 90.844 11.3389 90.16 12.0426C89.4753 12.7459 89.1341 13.6081 89.1341 14.6235C89.1341 15.6389 89.4753 16.5011 90.16 17.2044C90.844 17.9081 91.6966 18.26 92.7126 18.26C93.7288 18.26 94.5814 17.9081 95.2665 17.2043C95.95 16.5011 96.2923 15.639 96.2923 14.6235C96.2923 13.6135 95.9487 12.7537 95.262 12.0472C94.5747 11.3402 93.7233 10.9858 92.7126 10.9858ZM90.1736 14.6235C90.1736 13.8466 90.4211 13.2127 90.9102 12.7158C91.4013 12.2191 92.0003 11.9707 92.7126 11.9707C93.4251 11.9707 94.0252 12.2181 94.5151 12.7158C95.0053 13.2126 95.2528 13.8466 95.2528 14.6235C95.2528 15.4004 95.0053 16.0344 94.5151 16.5312C94.0251 17.0278 93.425 17.2763 92.7126 17.2763C92.0003 17.2763 91.4014 17.029 90.9103 16.5313C90.4211 16.0344 90.1736 15.4005 90.1736 14.6235Z" fill="white"/>
<path d="M62.0737 10.9881C61.0702 10.9881 60.2136 11.3365 59.5117 12.0337C58.8082 12.7303 58.4565 13.5952 58.4565 14.6246C58.4565 15.6529 58.8082 16.5178 59.5117 17.2155C60.2136 17.9115 61.0702 18.26 62.0737 18.26C63.119 18.26 63.9755 17.9171 64.6321 17.2283C65.213 16.6459 65.4999 15.8677 65.4999 14.8998C65.4999 14.7306 65.4847 14.5543 65.4497 14.3711L65.4385 14.3124H62.0004V15.2768H64.4711C64.4114 15.8166 64.2281 16.2339 63.9276 16.5355C63.4337 17.0293 62.8167 17.2762 62.0726 17.2762C61.3728 17.2762 60.7697 17.0312 60.2586 16.539C59.7501 16.0492 59.4949 15.4126 59.4949 14.6235C59.4949 13.8343 59.7501 13.1977 60.2586 12.7079C60.7697 12.2157 61.3728 11.9707 62.0726 11.9707C62.8493 11.9707 63.4499 12.233 63.8858 12.7545L63.9365 12.8152L64.6384 12.112L64.5959 12.0613C64.3213 11.734 63.9554 11.4741 63.5022 11.2794C63.0496 11.0855 62.5725 10.9881 62.0737 10.9881Z" fill="white"/>
<path d="M70.743 11.1394H66.6146V18.1076H70.743V17.1239H67.6358V15.1052H70.4382V14.1407H67.6358V12.122H70.743V11.1394Z" fill="white"/>
<path d="M76.3463 11.1394H71.5128V12.122H73.4189V18.1076H74.4402V12.122H76.3463V11.1394Z" fill="white"/>
<path d="M80.6157 11.1394H79.5945V18.1076H80.6157V11.1394Z" fill="white"/>
<path d="M86.4105 11.1394H81.577V12.122H83.4831V18.1076H84.5044V12.122H86.4105V11.1394Z" fill="white"/>
<path d="M98.5575 11.1394H97.3785V18.1076H98.3975L98.3975 13.7842L98.3657 12.6708L101.755 18.1076H102.783V11.1394H101.762V15.2047L101.762 15.2067L101.793 16.3184L98.5575 11.1394Z" fill="white"/>
<g filter="url(#filter0_ii_2_74)">
<path d="M23.3679 11.8219C23.037 12.1722 22.8414 12.7158 22.8414 13.4198V38.5725C22.8414 39.2776 23.037 39.8201 23.3679 40.1704L23.4521 40.2523L37.5422 26.1622V25.9962V25.8301L23.4521 11.7389L23.3679 11.8219Z" fill="url(#paint0_linear_2_74)"/>
<path d="M42.2375 30.8606L37.5416 26.1623V25.9963V25.8303L42.2386 21.1332L42.3444 21.1935L47.9093 24.3552C49.4981 25.2582 49.4981 26.7356 47.9093 27.6397L42.3444 30.8014L42.2375 30.8606Z" fill="url(#paint1_linear_2_74)"/>
<g filter="url(#filter1_i_2_74)">
<path d="M42.3448 30.8011L37.5409 25.9971L23.3677 40.1713C23.8909 40.7263 24.7564 40.7946 25.7311 40.2418L42.3448 30.8011Z" fill="url(#paint2_linear_2_74)"/>
</g>
<path d="M42.3448 21.1925L25.7311 11.7528C24.7564 11.199 23.8909 11.2683 23.3677 11.8233L37.542 25.9976L42.3448 21.1925Z" fill="url(#paint3_linear_2_74)"/>
</g>
<defs>
<filter id="filter0_ii_2_74" x="22.8414" y="11.3706" width="26.2595" height="29.2531" filterUnits="userSpaceOnUse" color-interpolation-filters="sRGB">
<feFlood flood-opacity="0" result="BackgroundImageFix"/>
<feBlend mode="normal" in="SourceGraphic" in2="BackgroundImageFix" result="shape"/>
<feColorMatrix in="SourceAlpha" type="matrix" values="0 0 0 0 0 0 0 0 0 0 0 0 0 0 0 0 0 0 127 0" result="hardAlpha"/>
<feOffset dy="-0.15"/>
<feComposite in2="hardAlpha" operator="arithmetic" k2="-1" k3="1"/>
<feColorMatrix type="matrix" values="0 0 0 0 0 0 0 0 0 0 0 0 0 0 0 0 0 0 0.12 0"/>
<feBlend mode="normal" in2="shape" result="effect1_innerShadow_2_74"/>
<feColorMatrix in="SourceAlpha" type="matrix" values="0 0 0 0 0 0 0 0 0 0 0 0 0 0 0 0 0 0 127 0" result="hardAlpha"/>
<feOffset dy="0.15"/>
<feComposite in2="hardAlpha" operator="arithmetic" k2="-1" k3="1"/>
<feColorMatrix type="matrix" values="0 0 0 0 1 0 0 0 0 1 0 0 0 0 1 0 0 0 0.25 0"/>
<feBlend mode="normal" in2="effect1_innerShadow_2_74" result="effect2_innerShadow_2_74"/>
</filter>
<filter id="filter1_i_2_74" x="23.3677" y="25.9971" width="18.9771" height="14.6266" filterUnits="userSpaceOnUse" color-interpolation-filters="sRGB">
<feFlood flood-opacity="0" result="BackgroundImageFix"/>
<feBlend mode="normal" in="SourceGraphic" in2="BackgroundImageFix" result="shape"/>
<feColorMatrix in="SourceAlpha" type="matrix" values="0 0 0 0 0 0 0 0 0 0 0 0 0 0 0 0 0 0 127 0" result="hardAlpha"/>
<feOffset dy="-0.15"/>
<feComposite in2="hardAlpha" operator="arithmetic" k2="-1" k3="1"/>
<feColorMatrix type="matrix" values="0 0 0 0 0 0 0 0 0 0 0 0 0 0 0 0 0 0 0.08 0"/>
<feBlend mode="normal" in2="shape" result="effect1_innerShadow_2_74"/>
</filter>
<linearGradient id="paint0_linear_2_74" x1="36.2932" y1="13.1537" x2="17.2069" y2="32.24" gradientUnits="userSpaceOnUse">
<stop stop-color="#00A0FF"/>
<stop offset="0.0066" stop-color="#00A1FF"/>
<stop offset="0.2601" stop-color="#00BEFF"/>
<stop offset="0.5122" stop-color="#00D2FF"/>
<stop offset="0.7604" stop-color="#00DFFF"/>
<stop offset="1" stop-color="#00E3FF"/>
</linearGradient>
<linearGradient id="paint1_linear_2_74" x1="49.9774" y1="25.9963" x2="22.4593" y2="25.9963" gradientUnits="userSpaceOnUse">
<stop stop-color="#FFE000"/>
<stop offset="0.4087" stop-color="#FFBD00"/>
<stop offset="0.7754" stop-color="#FFA500"/>
<stop offset="1" stop-color="#FF9C00"/>
</linearGradient>
<linearGradient id="paint2_linear_2_74" x1="39.736" y1="28.6059" x2="13.8526" y2="54.4893" gradientUnits="userSpaceOnUse">
<stop stop-color="#FF3A44"/>
<stop offset="1" stop-color="#C31162"/>
</linearGradient>
<linearGradient id="paint3_linear_2_74" x1="19.7982" y1="3.45026" x2="31.3558" y2="15.0079" gradientUnits="userSpaceOnUse">
<stop stop-color="#32A071"/>
<stop offset="0.0685" stop-color="#2DA771"/>
<stop offset="0.4762" stop-color="#15CF74"/>
<stop offset="0.8009" stop-color="#06E775"/>
<stop offset="1" stop-color="#00F076"/>
</linearGradient>
</defs>
</svg>
