<svg width="16" height="12" viewBox="0 0 16 12" fill="none" xmlns="http://www.w3.org/2000/svg">
<path d="M14.3562 2.9906C14.3668 3.12217 14.3668 3.25298 14.3668 3.38379C14.3668 7.38704 11.067 12 5.03643 12C3.17851 12 1.45247 11.5031 0 10.64C0.26379 10.6678 0.51781 10.6776 0.792184 10.6776C2.26826 10.6809 3.70254 10.2251 4.86383 9.38379C4.17946 9.37235 3.51604 9.16386 2.9662 8.78742C2.41636 8.41099 2.00756 7.8854 1.79687 7.28405C1.99959 7.31187 2.20313 7.33066 2.41645 7.33066C2.71036 7.33066 3.0059 7.29307 3.28028 7.22767C2.53756 7.0892 1.86971 6.71746 1.39029 6.17568C0.91086 5.6339 0.649455 4.9555 0.650519 4.25586V4.21827C1.08773 4.44305 1.59495 4.58364 2.1323 4.60243C1.68214 4.32621 1.31302 3.9514 1.05788 3.51143C0.802735 3.07146 0.6695 2.58002 0.670059 2.08094C0.670059 1.51861 0.832078 1.00288 1.11622 0.553314C1.94027 1.4893 2.96805 2.25503 4.13298 2.8009C5.29792 3.34677 6.57404 3.66061 7.87869 3.72209C7.82821 3.49655 7.79727 3.26275 7.79727 3.02819C7.79706 2.63047 7.88174 2.23661 8.04647 1.86912C8.2112 1.50163 8.45276 1.16773 8.75733 0.886496C9.0619 0.605264 9.42351 0.382216 9.82149 0.230105C10.2195 0.0779944 10.646 -0.000197253 11.0767 3.73685e-07C12.0212 3.73685e-07 12.8736 0.365368 13.4728 0.956271C14.207 0.825173 14.9111 0.577689 15.5538 0.224784C15.3091 0.924558 14.7965 1.51793 14.1119 1.89375C14.7631 1.82517 15.3995 1.66705 16 1.42463C15.5515 2.02839 14.9957 2.55783 14.3562 2.9906Z" fill="#061210"/>
</svg>
