<svg width="160" height="52" viewBox="0 0 160 52" fill="none" xmlns="http://www.w3.org/2000/svg">
<rect width="159.475" height="51.9912" rx="10" fill="##161415"/>
<path d="M104.218 25.0871V27.6927H102.585V29.4014H104.218V35.2073C104.218 37.1899 105.115 37.9829 107.372 37.9829C107.768 37.9829 108.146 37.9357 108.476 37.879V36.1892C108.193 36.2175 108.014 36.2364 107.702 36.2364C106.692 36.2364 106.248 35.7643 106.248 34.6881V29.4014H108.476V27.6927H106.248V25.0871H104.218Z" fill="white"/>
<path d="M114.224 38.1245C117.226 38.1245 119.067 36.1136 119.067 32.7811C119.067 29.4675 117.217 27.4472 114.224 27.4472C111.222 27.4472 109.371 29.4675 109.371 32.7811C109.371 36.1136 111.212 38.1245 114.224 38.1245ZM114.224 36.3213C112.459 36.3213 111.467 35.028 111.467 32.7811C111.467 30.5532 112.459 29.2504 114.224 29.2504C115.98 29.2504 116.981 30.5532 116.981 32.7811C116.981 35.0185 115.98 36.3213 114.224 36.3213Z" fill="white"/>
<path d="M120.642 37.9262H122.672V31.856C122.672 30.4116 123.757 29.4392 125.296 29.4392C125.655 29.4392 126.259 29.5053 126.429 29.5619V27.5605C126.212 27.5039 125.825 27.4756 125.523 27.4756C124.182 27.4756 123.04 28.2119 122.747 29.222H122.596V27.6455H120.642V37.9262Z" fill="white"/>
<path d="M131.469 29.1748C132.97 29.1748 133.952 30.2227 133.999 31.8371H128.807C128.92 30.2322 129.968 29.1748 131.469 29.1748ZM133.989 35.1507C133.612 35.9532 132.772 36.3969 131.544 36.3969C129.92 36.3969 128.873 35.2546 128.807 33.4514V33.3381H136.066V32.6301C136.066 29.4014 134.339 27.4472 131.478 27.4472C128.58 27.4472 126.739 29.5336 126.739 32.8189C126.739 36.1042 128.542 38.1245 131.488 38.1245C133.838 38.1245 135.481 36.9916 135.944 35.1507H133.989Z" fill="white"/>
<path d="M90.9079 34.1297C91.0644 36.6542 93.1682 38.2687 96.2993 38.2687C99.6457 38.2687 101.74 36.5759 101.74 33.8753C101.74 31.752 100.546 30.5778 97.6496 29.9027L96.0938 29.521C94.2543 29.0905 93.5106 28.5132 93.5106 27.5054C93.5106 26.2333 94.6653 25.4016 96.3972 25.4016C98.041 25.4016 99.1761 26.2138 99.3815 27.5152H101.515C101.387 25.1374 99.2935 23.4642 96.4265 23.4642C93.3443 23.4642 91.2895 25.1374 91.2895 27.6521C91.2895 29.7265 92.4539 30.9594 95.0077 31.5563L96.8277 31.9966C98.6966 32.4369 99.5185 33.0827 99.5185 34.1591C99.5185 35.4115 98.2269 36.3215 96.4657 36.3215C94.5772 36.3215 93.266 35.4702 93.0801 34.1297H90.9079Z" fill="white"/>
<path d="M69.8821 27.4756C68.4849 27.4756 67.2765 28.1742 66.6534 29.3448H66.5024V27.6455H64.5482V41.3437H66.5779V36.3685H66.7384C67.2765 37.4542 68.4377 38.0962 69.901 38.0962C72.4971 38.0962 74.1492 36.0476 74.1492 32.7811C74.1492 29.5147 72.4971 27.4756 69.8821 27.4756ZM69.3062 36.2741C67.6069 36.2741 66.5402 34.9336 66.5402 32.7906C66.5402 30.6381 67.6069 29.2976 69.3157 29.2976C71.0339 29.2976 72.0629 30.6098 72.0629 32.7811C72.0629 34.9619 71.0339 36.2741 69.3062 36.2741Z" fill="white"/>
<path d="M81.2515 27.4756C79.8543 27.4756 78.6459 28.1742 78.0229 29.3448H77.8718V27.6455H75.9176V41.3437H77.9473V36.3685H78.1078C78.6459 37.4542 79.8071 38.0962 81.2704 38.0962C83.8666 38.0962 85.5187 36.0476 85.5187 32.7811C85.5187 29.5147 83.8666 27.4756 81.2515 27.4756ZM80.6757 36.2741C78.9764 36.2741 77.9096 34.9336 77.9096 32.7906C77.9096 30.6381 78.9764 29.2976 80.6851 29.2976C82.4033 29.2976 83.4323 30.6098 83.4323 32.7811C83.4323 34.9619 82.4033 36.2741 80.6757 36.2741Z" fill="white"/>
<path d="M60.9066 37.9262H63.2353L58.1374 23.8067H55.7793L50.6814 37.9262H52.9319L54.2333 34.1786H59.615L60.9066 37.9262ZM56.8458 26.3703H57.0122L59.0572 32.3391H54.791L56.8458 26.3703Z" fill="white"/>
<path d="M52.0466 13.1559V19.9673H54.5058C56.5355 19.9673 57.7109 18.7164 57.7109 16.5404C57.7109 14.3974 56.5261 13.1559 54.5058 13.1559H52.0466ZM53.1039 14.1189H54.3878C55.7992 14.1189 56.6347 15.0157 56.6347 16.5545C56.6347 18.1169 55.8133 19.0044 54.3878 19.0044H53.1039V14.1189Z" fill="white"/>
<path d="M61.3106 20.0664C62.8116 20.0664 63.7321 19.061 63.7321 17.3947C63.7321 15.7379 62.8069 14.7278 61.3106 14.7278C59.8095 14.7278 58.8843 15.7379 58.8843 17.3947C58.8843 19.061 59.8048 20.0664 61.3106 20.0664ZM61.3106 19.1648C60.4279 19.1648 59.9322 18.5182 59.9322 17.3947C59.9322 16.2808 60.4279 15.6294 61.3106 15.6294C62.1885 15.6294 62.6889 16.2808 62.6889 17.3947C62.6889 18.5134 62.1885 19.1648 61.3106 19.1648Z" fill="white"/>
<path d="M71.5705 14.8269H70.5557L69.6399 18.7495H69.5597L68.5024 14.8269H67.53L66.4727 18.7495H66.3971L65.4767 14.8269H64.4477L65.8637 19.9673H66.9069L67.9643 16.1816H68.0445L69.1066 19.9673H70.1592L71.5705 14.8269Z" fill="white"/>
<path d="M72.7393 19.9673H73.7541V16.9605C73.7541 16.158 74.2309 15.6577 74.9814 15.6577C75.7319 15.6577 76.0907 16.0683 76.0907 16.8944V19.9673H77.1055V16.6395C77.1055 15.4169 76.473 14.7278 75.326 14.7278C74.5519 14.7278 74.0421 15.0724 73.7919 15.6435H73.7164V14.8269H72.7393V19.9673Z" fill="white"/>
<path d="M78.7038 19.9673H79.7187V12.8208H78.7038V19.9673Z" fill="white"/>
<path d="M83.5355 20.0664C85.0365 20.0664 85.957 19.061 85.957 17.3947C85.957 15.7379 85.0318 14.7278 83.5355 14.7278C82.0344 14.7278 81.1093 15.7379 81.1093 17.3947C81.1093 19.061 82.0297 20.0664 83.5355 20.0664ZM83.5355 19.1648C82.6528 19.1648 82.1572 18.5182 82.1572 17.3947C82.1572 16.2808 82.6528 15.6294 83.5355 15.6294C84.4134 15.6294 84.9138 16.2808 84.9138 17.3947C84.9138 18.5134 84.4134 19.1648 83.5355 19.1648Z" fill="white"/>
<path d="M88.9808 19.1979C88.4285 19.1979 88.0273 18.9288 88.0273 18.4662C88.0273 18.0131 88.3483 17.7724 89.0563 17.7252L90.3119 17.6449V18.0745C90.3119 18.7117 89.7455 19.1979 88.9808 19.1979ZM88.7212 20.0523C89.3962 20.0523 89.9579 19.7596 90.2647 19.2451H90.3449V19.9673H91.322V16.4554C91.322 15.3697 90.5951 14.7278 89.3065 14.7278C88.1406 14.7278 87.3098 15.2942 87.206 16.1769H88.1878C88.3011 15.8135 88.6928 15.6058 89.2593 15.6058C89.9531 15.6058 90.3119 15.9126 90.3119 16.4554V16.8991L88.9194 16.9794C87.6969 17.0549 87.0077 17.5883 87.0077 18.5134C87.0077 19.4528 87.7299 20.0523 88.7212 20.0523Z" fill="white"/>
<path d="M94.7659 20.0523C95.474 20.0523 96.0734 19.7171 96.3803 19.1554H96.4605V19.9673H97.4329V12.8208H96.418V15.6435H96.3425C96.064 15.0771 95.4693 14.7419 94.7659 14.7419C93.4679 14.7419 92.6324 15.771 92.6324 17.3947C92.6324 19.0232 93.4584 20.0523 94.7659 20.0523ZM95.0539 15.653C95.9035 15.653 96.4369 16.328 96.4369 17.3995C96.4369 18.4757 95.9082 19.1412 95.0539 19.1412C94.1948 19.1412 93.6803 18.4851 93.6803 17.3947C93.6803 16.3138 94.1995 15.653 95.0539 15.653Z" fill="white"/>
<path d="M104.014 20.0664C105.515 20.0664 106.435 19.061 106.435 17.3947C106.435 15.7379 105.51 14.7278 104.014 14.7278C102.513 14.7278 101.588 15.7379 101.588 17.3947C101.588 19.061 102.508 20.0664 104.014 20.0664ZM104.014 19.1648C103.131 19.1648 102.636 18.5182 102.636 17.3947C102.636 16.2808 103.131 15.6294 104.014 15.6294C104.892 15.6294 105.392 16.2808 105.392 17.3947C105.392 18.5134 104.892 19.1648 104.014 19.1648Z" fill="white"/>
<path d="M107.779 19.9673H108.794V16.9605C108.794 16.158 109.27 15.6577 110.021 15.6577C110.771 15.6577 111.13 16.0683 111.13 16.8944V19.9673H112.145V16.6395C112.145 15.4169 111.513 14.7278 110.365 14.7278C109.591 14.7278 109.082 15.0724 108.831 15.6435H108.756V14.8269H107.779V19.9673Z" fill="white"/>
<path d="M116.819 13.5477V14.8505H116.002V15.7049H116.819V18.6078C116.819 19.5991 117.267 19.9956 118.396 19.9956C118.594 19.9956 118.783 19.972 118.948 19.9437V19.0988C118.806 19.1129 118.717 19.1224 118.561 19.1224C118.056 19.1224 117.834 18.8863 117.834 18.3482V15.7049H118.948V14.8505H117.834V13.5477H116.819Z" fill="white"/>
<path d="M120.31 19.9673H121.325V16.9652C121.325 16.1864 121.788 15.6624 122.618 15.6624C123.336 15.6624 123.718 16.0778 123.718 16.8991V19.9673H124.733V16.6489C124.733 15.4264 124.058 14.7325 122.963 14.7325C122.189 14.7325 121.646 15.0771 121.396 15.653H121.316V12.8208H120.31V19.9673Z" fill="white"/>
<path d="M128.394 15.5916C129.145 15.5916 129.635 16.1155 129.659 16.9227H127.063C127.12 16.1203 127.644 15.5916 128.394 15.5916ZM129.654 18.5795C129.466 18.9808 129.045 19.2026 128.432 19.2026C127.62 19.2026 127.096 18.6315 127.063 17.7299V17.6732H130.693V17.3192C130.693 15.7049 129.829 14.7278 128.399 14.7278C126.95 14.7278 126.029 15.771 126.029 17.4136C126.029 19.0563 126.931 20.0664 128.404 20.0664C129.579 20.0664 130.4 19.5 130.631 18.5795H129.654Z" fill="white"/>
<path d="M39.6681 26.3369C39.6927 24.4251 40.7194 22.6161 42.3482 21.6148C41.3207 20.1473 39.5996 19.2168 37.809 19.1608C35.8992 18.9604 34.0477 20.3036 33.0745 20.3036C32.0825 20.3036 30.5841 19.1807 28.9706 19.2139C26.8674 19.2819 24.9067 20.4776 23.8835 22.3163C21.6839 26.1245 23.3246 31.7213 25.4316 34.7995C26.4858 36.3068 27.7178 37.9906 29.3299 37.9309C30.9074 37.8654 31.4965 36.9249 33.4007 36.9249C35.2872 36.9249 35.84 37.9309 37.4848 37.8929C39.1775 37.8654 40.2441 36.3789 41.2612 34.8573C42.0187 33.7832 42.6015 32.5962 42.9881 31.3401C40.9989 30.4988 39.6704 28.4968 39.6681 26.3369Z" fill="white"/>
<path d="M36.5613 17.1364C37.4843 16.0284 37.939 14.6043 37.8289 13.1665C36.4188 13.3146 35.1163 13.9885 34.1809 15.054C33.2662 16.095 32.7901 17.4941 32.8801 18.8769C34.2907 18.8914 35.6774 18.2358 36.5613 17.1364Z" fill="white"/>
</svg>
